<svg xmlns="http://www.w3.org/2000/svg" width="64" height="64" viewBox="0 0 24 24" fill="none">
  <defs>
    <style>
      .portfolio-accent { fill: #1B7CF0; }
    </style>
  </defs>

  <path class="portfolio-accent" fill-rule="evenodd" clip-rule="evenodd" d="M3 5C3 3.34315 4.34315 2 6 2H18C19.6569 2 21 3.34315 21 5V19C21 20.6569 19.6569 22 18 22H6C4.34315 22 3 20.6569 3 19V5ZM6 4H18C18.5523 4 19 4.44772 19 5V6H5V5C5 4.44772 5.44772 4 6 4ZM5 8V19C5 19.5523 5.44772 20 6 20H18C18.5523 20 19 19.5523 19 19V8H5Z"/>

  <circle class="portfolio-accent" cx="8" cy="5" r="1"/>
  <circle class="portfolio-accent" cx="11" cy="5" r="1"/>

  <rect class="portfolio-accent" x="7" y="10" width="4" height="4" rx="0.5"/>
  <rect class="portfolio-accent" x="13" y="10" width="4" height="4" rx="0.5"/>
  <rect class="portfolio-accent" x="7" y="16" width="10" height="2" rx="0.5"/>
</svg>